<svg width="480" height="109" viewBox="0 0 480 109" fill="none" xmlns="http://www.w3.org/2000/svg">
<path d="M87.1175 108H85.5964L84.8964 104.794C84.7581 104.16 84.5881 103.682 84.3865 103.359C84.1906 103.031 83.9111 102.803 83.5481 102.676C83.1909 102.544 82.681 102.477 82.0184 102.477H79.5293V108H78.0255V95.546H82.1307C83.3177 95.546 84.2395 95.6526 84.8964 95.8658C85.5532 96.079 86.0228 96.4333 86.3051 96.9289C86.5874 97.4244 86.7286 98.1187 86.7286 99.0117C86.7286 99.8126 86.5269 100.438 86.1236 100.887C85.7261 101.337 85.0635 101.645 84.1358 101.812C84.6889 101.933 85.098 102.091 85.3631 102.287C85.6339 102.477 85.8269 102.722 85.9421 103.022C86.0573 103.316 86.1841 103.791 86.3224 104.448C86.3339 104.494 86.3454 104.549 86.357 104.612C86.3742 104.675 86.3915 104.75 86.4088 104.837L87.1175 108ZM82.0184 101.216C84.1906 101.216 85.2766 100.481 85.2766 99.0117C85.2766 98.4471 85.1787 98.0092 84.9828 97.698C84.7869 97.3869 84.4614 97.1651 84.0062 97.0326C83.551 96.8943 82.9143 96.8251 82.0962 96.8251H79.5293V101.216H82.0184ZM100.342 108.199C99.3913 108.199 98.6308 108.046 98.0604 107.741C97.49 107.435 97.0723 106.951 96.8072 106.289C96.5479 105.626 96.4183 104.742 96.4183 103.635C96.4183 102.598 96.5479 101.746 96.8072 101.077C97.0665 100.403 97.4813 99.899 98.0517 99.5648C98.6222 99.2307 99.3741 99.0636 100.307 99.0636C101.201 99.0636 101.915 99.1961 102.451 99.4611C102.992 99.7262 103.387 100.147 103.635 100.723C103.883 101.293 104.006 102.057 104.006 103.013L103.998 103.852H97.7665C97.7665 104.652 97.853 105.295 98.0258 105.779C98.2044 106.257 98.481 106.609 98.8555 106.833C99.2358 107.052 99.7428 107.162 100.377 107.162C100.889 107.162 101.301 107.11 101.612 107.006C101.929 106.902 102.163 106.738 102.313 106.513C102.468 106.283 102.555 105.978 102.572 105.597H103.929C103.929 106.485 103.635 107.142 103.047 107.568C102.465 107.988 101.564 108.199 100.342 108.199ZM102.65 102.866C102.667 102.204 102.598 101.674 102.442 101.276C102.287 100.879 102.033 100.588 101.682 100.403C101.33 100.219 100.861 100.127 100.273 100.127C99.6564 100.127 99.1724 100.21 98.8209 100.377C98.4752 100.544 98.2217 100.824 98.0604 101.216C97.8991 101.607 97.8069 102.158 97.7838 102.866H102.65ZM116.393 108.199C115.569 108.199 114.909 108.115 114.414 107.948C113.924 107.775 113.564 107.504 113.333 107.136C113.109 106.761 112.996 106.266 112.996 105.649H114.172C114.177 106.047 114.246 106.355 114.379 106.574C114.517 106.793 114.742 106.948 115.053 107.041C115.364 107.133 115.799 107.179 116.358 107.179C116.859 107.179 117.248 107.13 117.525 107.032C117.807 106.934 118.006 106.773 118.121 106.548C118.242 106.318 118.303 105.998 118.303 105.589C118.303 105.289 118.222 105.041 118.061 104.845C117.905 104.65 117.649 104.488 117.292 104.361C116.934 104.229 116.442 104.119 115.814 104.033C114.834 103.895 114.12 103.63 113.67 103.238C113.221 102.846 112.996 102.276 112.996 101.527C112.996 100.691 113.267 100.072 113.809 99.6686C114.35 99.2652 115.186 99.0636 116.315 99.0636C117.098 99.0636 117.721 99.15 118.182 99.3229C118.648 99.4899 118.983 99.7607 119.184 100.135C119.386 100.504 119.475 100.997 119.452 101.613H118.259C118.259 101.239 118.193 100.939 118.061 100.714C117.934 100.49 117.729 100.325 117.447 100.222C117.165 100.118 116.787 100.066 116.315 100.066C115.825 100.066 115.43 100.118 115.131 100.222C114.837 100.325 114.621 100.49 114.483 100.714C114.35 100.933 114.284 101.227 114.284 101.596C114.284 101.867 114.356 102.091 114.5 102.27C114.644 102.449 114.886 102.598 115.226 102.719C115.572 102.84 116.053 102.944 116.669 103.031C117.372 103.128 117.928 103.275 118.337 103.471C118.752 103.661 119.055 103.926 119.245 104.266C119.435 104.601 119.53 105.041 119.53 105.589C119.53 106.223 119.423 106.73 119.21 107.11C119.003 107.484 118.671 107.761 118.216 107.94C117.761 108.112 117.153 108.199 116.393 108.199ZM132.201 108.225C130.6 108.225 129.799 107.317 129.799 105.502V100.291H128.226V99.2364H129.799V96.8424H131.121V99.2364H133.273V100.291H131.13V105.684C131.13 106.174 131.233 106.525 131.441 106.738C131.648 106.946 131.988 107.049 132.461 107.049C132.783 107.049 133.117 107.018 133.463 106.954V108.104C133.06 108.184 132.639 108.225 132.201 108.225ZM149.687 108.207C149.266 108.207 148.926 108.095 148.667 107.87C148.413 107.646 148.287 107.349 148.287 106.98C147.998 107.372 147.592 107.674 147.068 107.888C146.549 108.095 145.95 108.199 145.27 108.199C144.297 108.199 143.548 107.971 143.023 107.516C142.499 107.055 142.237 106.404 142.237 105.563C142.237 104.912 142.372 104.39 142.643 103.998C142.914 103.607 143.343 103.321 143.931 103.143C144.518 102.964 145.302 102.875 146.281 102.875H148.096V101.708C148.096 101.328 148.024 101.025 147.88 100.801C147.736 100.57 147.509 100.403 147.198 100.299C146.886 100.196 146.472 100.144 145.953 100.144C145.417 100.144 144.988 100.193 144.665 100.291C144.343 100.389 144.106 100.547 143.957 100.766C143.807 100.979 143.732 101.265 143.732 101.622H142.531C142.531 100.752 142.81 100.109 143.369 99.6945C143.928 99.2796 144.789 99.0722 145.953 99.0722C147.134 99.0722 148.007 99.2883 148.572 99.7204C149.142 100.153 149.427 100.818 149.427 101.717V106.176C149.427 106.528 149.471 106.767 149.557 106.894C149.649 107.021 149.822 107.084 150.076 107.084C150.168 107.084 150.24 107.081 150.292 107.075V108.13C150.188 108.164 150.096 108.184 150.015 108.19C149.94 108.202 149.831 108.207 149.687 108.207ZM145.59 107.144C146.397 107.144 147.016 106.992 147.448 106.686C147.886 106.375 148.105 105.934 148.105 105.364V103.86H146.273C145.628 103.86 145.109 103.918 144.717 104.033C144.331 104.143 144.049 104.318 143.87 104.56C143.692 104.802 143.602 105.128 143.602 105.537C143.602 106.05 143.775 106.447 144.121 106.73C144.467 107.006 144.956 107.144 145.59 107.144ZM162.738 108.199C161.949 108.199 161.335 108.092 160.897 107.879C160.46 107.666 160.146 107.314 159.955 106.825C159.771 106.329 159.679 105.638 159.679 104.75V99.2624H161.01V104.517C161.01 105.191 161.073 105.715 161.2 106.09C161.332 106.459 161.546 106.724 161.84 106.885C162.139 107.041 162.56 107.118 163.101 107.118C163.96 107.118 164.594 106.894 165.003 106.444C165.412 105.989 165.616 105.292 165.616 104.353V99.2624H166.939V108H165.832L165.72 106.833C165.432 107.271 165.029 107.608 164.51 107.844C163.997 108.081 163.407 108.199 162.738 108.199ZM177.493 99.2624H178.694L178.746 100.619C179.132 100.089 179.547 99.6974 179.99 99.4438C180.434 99.1903 180.944 99.0636 181.52 99.0636H181.684V100.386H181.494C180.826 100.386 180.25 100.516 179.766 100.775C179.282 101.034 178.95 101.432 178.772 101.967V108H177.493V99.2624ZM197.847 108.207C197.427 108.207 197.087 108.095 196.827 107.87C196.574 107.646 196.447 107.349 196.447 106.98C196.159 107.372 195.753 107.674 195.229 107.888C194.71 108.095 194.111 108.199 193.431 108.199C192.457 108.199 191.708 107.971 191.184 107.516C190.66 107.055 190.397 106.404 190.397 105.563C190.397 104.912 190.533 104.39 190.804 103.998C191.074 103.607 191.504 103.321 192.091 103.143C192.679 102.964 193.463 102.875 194.442 102.875H196.257V101.708C196.257 101.328 196.185 101.025 196.041 100.801C195.897 100.57 195.669 100.403 195.358 100.299C195.047 100.196 194.632 100.144 194.114 100.144C193.578 100.144 193.149 100.193 192.826 100.291C192.503 100.389 192.267 100.547 192.117 100.766C191.967 100.979 191.893 101.265 191.893 101.622H190.691C190.691 100.752 190.971 100.109 191.53 99.6945C192.088 99.2796 192.95 99.0722 194.114 99.0722C195.295 99.0722 196.168 99.2883 196.732 99.7204C197.303 100.153 197.588 100.818 197.588 101.717V106.176C197.588 106.528 197.631 106.767 197.718 106.894C197.81 107.021 197.983 107.084 198.236 107.084C198.328 107.084 198.4 107.081 198.452 107.075V108.13C198.349 108.164 198.256 108.184 198.176 108.19C198.101 108.202 197.991 108.207 197.847 108.207ZM193.751 107.144C194.557 107.144 195.177 106.992 195.609 106.686C196.047 106.375 196.266 105.934 196.266 105.364V103.86H194.433C193.788 103.86 193.27 103.918 192.878 104.033C192.492 104.143 192.209 104.318 192.031 104.56C191.852 104.802 191.763 105.128 191.763 105.537C191.763 106.05 191.936 106.447 192.281 106.73C192.627 107.006 193.117 107.144 193.751 107.144ZM207.969 99.2624H209.058L209.162 100.498C209.45 99.9682 209.83 99.5937 210.303 99.3747C210.775 99.15 211.42 99.0376 212.239 99.0376C212.988 99.0376 213.587 99.1586 214.036 99.4006C214.491 99.6426 214.823 100.029 215.03 100.559C215.238 101.089 215.341 101.792 215.341 102.668V108H214.01V102.668C214.01 102.057 213.938 101.57 213.794 101.207C213.65 100.838 213.42 100.57 213.103 100.403C212.792 100.236 212.374 100.153 211.85 100.153C211.233 100.153 210.738 100.239 210.363 100.412C209.994 100.585 209.724 100.858 209.551 101.233C209.384 101.607 209.3 102.109 209.3 102.737V108H207.969V99.2624ZM228.695 108.225C227.094 108.225 226.293 107.317 226.293 105.502V100.291H224.72V99.2364H226.293V96.8424H227.615V99.2364H229.767V100.291H227.624V105.684C227.624 106.174 227.727 106.525 227.935 106.738C228.142 106.946 228.482 107.049 228.955 107.049C229.277 107.049 229.612 107.018 229.957 106.954V108.104C229.554 108.184 229.133 108.225 228.695 108.225ZM261.635 107.974L259.673 106.306C259.287 106.98 258.725 107.461 257.988 107.749C257.256 108.037 256.349 108.181 255.265 108.181C254.263 108.181 253.439 108.058 252.794 107.81C252.154 107.562 251.667 107.147 251.333 106.565C251.005 105.983 250.84 105.2 250.84 104.215C250.84 103.339 251.016 102.627 251.368 102.08C251.725 101.527 252.315 101.06 253.139 100.68C252.794 100.299 252.54 99.9077 252.379 99.5043C252.217 99.0953 252.137 98.6401 252.137 98.1388C252.137 97.5569 252.269 97.0527 252.534 96.6264C252.799 96.1942 253.185 95.8629 253.692 95.6325C254.2 95.3962 254.81 95.2781 255.525 95.2781C256.337 95.2781 256.982 95.379 257.461 95.5806C257.939 95.7765 258.287 96.0934 258.506 96.5313C258.725 96.9634 258.835 97.5425 258.835 98.2685H257.564C257.564 97.8363 257.495 97.4935 257.357 97.24C257.224 96.9807 257.011 96.7935 256.717 96.6782C256.429 96.5572 256.043 96.4967 255.559 96.4967C254.897 96.4967 254.387 96.6379 254.03 96.9202C253.672 97.2025 253.494 97.5972 253.494 98.1042C253.494 98.5767 253.592 98.98 253.788 99.3142C253.983 99.6426 254.318 100.008 254.79 100.412L258.947 103.947C258.959 103.728 258.964 103.558 258.964 103.437V101.674H260.295V103.437C260.295 103.978 260.249 104.494 260.157 104.984L262.404 106.894L261.635 107.974ZM255.352 106.928C256.124 106.928 256.784 106.807 257.331 106.565C257.884 106.323 258.299 105.926 258.576 105.373L253.917 101.397C253.514 101.576 253.197 101.78 252.967 102.011C252.736 102.241 252.569 102.532 252.465 102.884C252.362 103.229 252.31 103.673 252.31 104.215C252.31 104.923 252.422 105.476 252.647 105.874C252.877 106.266 253.211 106.539 253.649 106.695C254.087 106.851 254.655 106.928 255.352 106.928ZM282.769 99.2624H284.16L285.526 104.655L286.018 106.92L286.528 104.75L288.196 99.2624H289.839L291.472 104.69L292.016 106.902L292.526 104.69L293.857 99.2624H295.223L292.716 108H291.204L289.009 100.446L286.796 108H285.275L282.769 99.2624ZM304.817 96.0214H306.589V97.6808H304.817V96.0214ZM305.042 99.2624H306.365V108H305.042V99.2624ZM317.135 99.2624H318.224L318.327 100.498C318.615 99.9682 318.996 99.5937 319.468 99.3747C319.941 99.15 320.586 99.0376 321.404 99.0376C322.153 99.0376 322.752 99.1586 323.202 99.4006C323.657 99.6426 323.988 100.029 324.196 100.559C324.403 101.089 324.507 101.792 324.507 102.668V108H323.176V102.668C323.176 102.057 323.104 101.57 322.96 101.207C322.816 100.838 322.585 100.57 322.268 100.403C321.957 100.236 321.539 100.153 321.015 100.153C320.399 100.153 319.903 100.239 319.529 100.412C319.16 100.585 318.889 100.858 318.716 101.233C318.549 101.607 318.466 102.109 318.466 102.737V108H317.135V99.2624ZM338.189 108.199C337.239 108.199 336.478 108.046 335.908 107.741C335.337 107.435 334.919 106.951 334.654 106.289C334.395 105.626 334.266 104.742 334.266 103.635C334.266 102.598 334.395 101.746 334.654 101.077C334.914 100.403 335.329 99.899 335.899 99.5648C336.469 99.2307 337.221 99.0636 338.155 99.0636C339.048 99.0636 339.762 99.1961 340.298 99.4611C340.84 99.7262 341.234 100.147 341.482 100.723C341.73 101.293 341.854 102.057 341.854 103.013L341.845 103.852H335.614C335.614 104.652 335.7 105.295 335.873 105.779C336.052 106.257 336.328 106.609 336.703 106.833C337.083 107.052 337.59 107.162 338.224 107.162C338.737 107.162 339.149 107.11 339.46 107.006C339.777 106.902 340.01 106.738 340.16 106.513C340.315 106.283 340.402 105.978 340.419 105.597H341.776C341.776 106.485 341.482 107.142 340.894 107.568C340.312 107.988 339.411 108.199 338.189 108.199ZM340.497 102.866C340.514 102.204 340.445 101.674 340.289 101.276C340.134 100.879 339.88 100.588 339.529 100.403C339.177 100.219 338.708 100.127 338.12 100.127C337.504 100.127 337.02 100.21 336.668 100.377C336.322 100.544 336.069 100.824 335.908 101.216C335.746 101.607 335.654 102.158 335.631 102.866H340.497ZM367.948 108.199C367.101 108.199 366.456 108.075 366.012 107.827C365.569 107.579 365.217 107.251 364.958 106.842L364.803 108H363.739V95.546H365.07V100.239C365.359 99.8184 365.722 99.5187 366.159 99.3401C366.603 99.1615 367.194 99.0722 367.931 99.0722C368.836 99.0722 369.539 99.2163 370.04 99.5043C370.541 99.7867 370.898 100.259 371.112 100.922C371.331 101.584 371.44 102.512 371.44 103.705C371.44 104.794 371.322 105.667 371.086 106.323C370.855 106.974 370.486 107.45 369.979 107.749C369.472 108.049 368.795 108.199 367.948 108.199ZM367.646 107.118C368.274 107.118 368.764 107.015 369.115 106.807C369.467 106.6 369.717 106.254 369.867 105.77C370.017 105.28 370.092 104.598 370.092 103.722C370.092 102.8 370.014 102.083 369.858 101.57C369.709 101.057 369.458 100.691 369.107 100.472C368.755 100.253 368.26 100.144 367.62 100.144C366.923 100.144 366.396 100.242 366.038 100.438C365.681 100.634 365.431 100.976 365.286 101.466C365.142 101.956 365.07 102.679 365.07 103.635C365.07 104.534 365.148 105.234 365.304 105.736C365.465 106.231 365.73 106.585 366.099 106.799C366.468 107.012 366.983 107.118 367.646 107.118ZM388.001 108.207C387.58 108.207 387.24 108.095 386.981 107.87C386.727 107.646 386.6 107.349 386.6 106.98C386.312 107.372 385.906 107.674 385.382 107.888C384.863 108.095 384.264 108.199 383.584 108.199C382.61 108.199 381.861 107.971 381.337 107.516C380.813 107.055 380.551 106.404 380.551 105.563C380.551 104.912 380.686 104.39 380.957 103.998C381.228 103.607 381.657 103.321 382.245 103.143C382.832 102.964 383.616 102.875 384.595 102.875H386.41V101.708C386.41 101.328 386.338 101.025 386.194 100.801C386.05 100.57 385.823 100.403 385.512 100.299C385.2 100.196 384.786 100.144 384.267 100.144C383.731 100.144 383.302 100.193 382.979 100.291C382.657 100.389 382.42 100.547 382.271 100.766C382.121 100.979 382.046 101.265 382.046 101.622H380.845C380.845 100.752 381.124 100.109 381.683 99.6945C382.242 99.2796 383.103 99.0722 384.267 99.0722C385.448 99.0722 386.321 99.2883 386.886 99.7204C387.456 100.153 387.741 100.818 387.741 101.717V106.176C387.741 106.528 387.785 106.767 387.871 106.894C387.963 107.021 388.136 107.084 388.39 107.084C388.482 107.084 388.554 107.081 388.606 107.075V108.13C388.502 108.164 388.41 108.184 388.329 108.19C388.254 108.202 388.145 108.207 388.001 108.207ZM383.904 107.144C384.711 107.144 385.33 106.992 385.762 106.686C386.2 106.375 386.419 105.934 386.419 105.364V103.86H384.587C383.941 103.86 383.423 103.918 383.031 104.033C382.645 104.143 382.363 104.318 382.184 104.56C382.006 104.802 381.916 105.128 381.916 105.537C381.916 106.05 382.089 106.447 382.435 106.73C382.78 107.006 383.27 107.144 383.904 107.144ZM398.122 99.2624H399.324L399.376 100.619C399.762 100.089 400.176 99.6974 400.62 99.4438C401.064 99.1903 401.574 99.0636 402.15 99.0636H402.314V100.386H402.124C401.456 100.386 400.879 100.516 400.395 100.775C399.911 101.034 399.58 101.432 399.402 101.967V108H398.122V99.2624Z" fill="#22382E"/>
<path d="M117.693 45.4023C122.674 46.2161 126.368 48.0716 128.777 50.9688C131.186 53.8659 132.391 57.8535 132.391 62.9316C132.391 67.554 131.544 71.3464 129.852 74.3086C128.191 77.2383 125.604 79.4193 122.088 80.8516C118.572 82.2839 114.015 83 108.416 83H81.1699V12.6387H105.535C111.557 12.6387 116.245 13.1921 119.598 14.2988C122.951 15.373 125.343 17.1797 126.775 19.7188C128.208 22.2578 128.924 25.806 128.924 30.3633C128.924 34.7253 128.045 38.0781 126.287 40.4219C124.562 42.7331 121.697 44.3932 117.693 45.4023ZM89.4707 42.3262H107.146C110.532 42.3262 113.25 41.9355 115.301 41.1543C117.352 40.3405 118.833 39.0547 119.744 37.2969C120.688 35.5391 121.16 33.2116 121.16 30.3145C121.16 27.6126 120.672 25.513 119.695 24.0156C118.751 22.5182 117.156 21.444 114.91 20.793C112.697 20.1419 109.588 19.8164 105.584 19.8164H89.4707V42.3262ZM108.367 75.8711C112.339 75.8711 115.415 75.4805 117.596 74.6992C119.777 73.8854 121.339 72.5671 122.283 70.7441C123.227 68.8887 123.699 66.3008 123.699 62.9805C123.699 59.6602 123.146 57.0072 122.039 55.0215C120.932 53.0033 119.174 51.5384 116.766 50.627C114.357 49.7155 111.15 49.2598 107.146 49.2598H89.4707V75.8711H108.367ZM176.082 12.6387H185.896L212.801 83H204.207L197.518 65.373H164.803L158.162 83H149.52L176.082 12.6387ZM195.174 58.4883L181.014 19.8164L167.098 58.4883H195.174ZM255.613 84.416C249.559 84.416 244.692 83.7812 241.014 82.5117C237.368 81.2096 234.682 79.1589 232.957 76.3594C231.232 73.5273 230.369 69.7839 230.369 65.1289H238.426C238.426 68.1888 238.979 70.5814 240.086 72.3066C241.193 73.9993 242.999 75.2201 245.506 75.9688C248.012 76.6849 251.495 77.043 255.955 77.043C260.024 77.043 263.247 76.6035 265.623 75.7246C267.999 74.8457 269.708 73.4622 270.75 71.5742C271.824 69.6536 272.361 67.082 272.361 63.8594C272.361 60.9622 271.743 58.6185 270.506 56.8281C269.269 55.0378 267.169 53.5892 264.207 52.4824C261.245 51.3431 257.078 50.3828 251.707 49.6016C244.35 48.5273 238.979 46.3626 235.594 43.1074C232.241 39.8197 230.564 35.2624 230.564 29.4355C230.564 23.1204 232.648 18.4492 236.814 15.4219C240.981 12.3945 247.394 10.8809 256.053 10.8809C261.587 10.8809 266.014 11.4831 269.334 12.6875C272.654 13.8594 275.079 15.7474 276.609 18.3516C278.139 20.9557 278.904 24.4225 278.904 28.752H271.141C271.141 26.0501 270.652 23.9505 269.676 22.4531C268.699 20.9557 267.072 19.8978 264.793 19.2793C262.547 18.6283 259.389 18.3027 255.32 18.3027C251.382 18.3027 248.224 18.6771 245.848 19.4258C243.504 20.1419 241.779 21.2975 240.672 22.8926C239.598 24.4876 239.061 26.6035 239.061 29.2402C239.061 32.0072 239.63 34.2207 240.77 35.8809C241.909 37.5085 243.895 38.8594 246.727 39.9336C249.559 40.9753 253.66 41.9193 259.031 42.7656C266.616 43.9375 272.15 46.1999 275.633 49.5527C279.116 52.9056 280.857 57.5443 280.857 63.4688C280.857 70.6302 278.823 75.9199 274.754 79.3379C270.685 82.7233 264.305 84.416 255.613 84.416ZM306.238 75.8223H316.004V19.8164H305.701V12.6387H334.607V19.8164H324.5V75.8223H334.266V83H306.238V75.8223ZM365.115 12.6387H373.611V75.8223H406.57V83H365.115V12.6387Z" fill="#22382E"/>
<path d="M4 62H476" stroke="#22382E" stroke-width="7" stroke-linecap="round"/>
</svg>
